<?xml version="1.0" encoding="UTF-8" standalone="no"?>
<!DOCTYPE svg PUBLIC "-//W3C//DTD SVG 1.1//EN"
 "http://www.w3.org/Graphics/SVG/1.1/DTD/svg11.dtd">
<!-- Generated by graphviz version 2.36.0 (20140111.2315)
 -->
<!-- Title: tree Pages: 1 -->
<svg width="226pt" height="647pt"
 viewBox="0.00 0.00 225.69 647.22" xmlns="http://www.w3.org/2000/svg" xmlns:xlink="http://www.w3.org/1999/xlink">
<g id="graph0" class="graph" transform="scale(0.694444 0.694444) rotate(0) translate(4 928)">
<title>tree</title>
<!-- error_0 -->
<g id="node1" class="node"><title>error_0</title>
<polygon fill="#333333" stroke="none" points="110.25,-923.5 -0.25,-923.5 -0.25,-840.5 110.25,-840.5 110.25,-923.5"/>
<text text-anchor="middle" x="55" y="-908.3" font-family="Ubuntu" font-size="14.00" fill="#ffaa66">assertionerror:</text>
<text text-anchor="middle" x="55" y="-893.3" font-family="Ubuntu" font-size="14.00" fill="#ffaa66">ebl</text>
<text text-anchor="middle" x="55" y="-878.3" font-family="Ubuntu" font-size="14.00" fill="#ffaa66">is</text>
<text text-anchor="middle" x="55" y="-863.3" font-family="Ubuntu" font-size="14.00" fill="#ffaa66">not</text>
<text text-anchor="start" x="7.5" y="-848.3" font-family="Ubuntu" font-size="14.00" fill="#ffaa66">ini</text>
</g>
<!-- jenkins_9_0 -->
<g id="node6" class="node"><title>jenkins_9_0</title>
<g id="a_node6"><a xlink:href="http://jenkins/job/ebl_verify_autotest/9/" xlink:title="hil 3\l">
<path fill="#dddddd" stroke="none" d="M68.5833,-831.5C68.5833,-831.5 41.4167,-831.5 41.4167,-831.5 37.5833,-831.5 33.75,-827.667 33.75,-823.833 33.75,-823.833 33.75,-816.167 33.75,-816.167 33.75,-812.333 37.5833,-808.5 41.4167,-808.5 41.4167,-808.5 68.5833,-808.5 68.5833,-808.5 72.4167,-808.5 76.25,-812.333 76.25,-816.167 76.25,-816.167 76.25,-823.833 76.25,-823.833 76.25,-827.667 72.4167,-831.5 68.5833,-831.5"/>
<text text-anchor="start" x="41.5" y="-816.3" font-family="Ubuntu" font-size="14.00" fill="#8888ff">hil 3</text>
</a>
</g>
</g>
<!-- error_0&#45;&gt;jenkins_9_0 -->
<g id="edge24" class="edge"><title>error_0&#45;&gt;jenkins_9_0</title>
<path fill="none" stroke="#bbbbbb" d="M55,-831.755C55,-831.672 55,-831.589 55,-831.507"/>
<polygon fill="#bbbbbb" stroke="#bbbbbb" points="51.5001,-830.315 55,-840.315 58.5001,-830.315 51.5001,-830.315"/>
</g>
<!-- error_1 -->
<g id="node2" class="node"><title>error_1</title>
<polygon fill="#333333" stroke="none" points="216.25,-116 105.75,-116 105.75,-32 216.25,-32 216.25,-116"/>
<text text-anchor="middle" x="161" y="-100.8" font-family="Ubuntu" font-size="14.00" fill="#ffaa66">assertionerror:</text>
<text text-anchor="middle" x="161" y="-85.8" font-family="Ubuntu" font-size="14.00" fill="#ffaa66">failed</text>
<text text-anchor="middle" x="161" y="-70.8" font-family="Ubuntu" font-size="14.00" fill="#ffaa66">to</text>
<text text-anchor="middle" x="161" y="-55.8" font-family="Ubuntu" font-size="14.00" fill="#ffaa66">get</text>
</g>
<!-- jenkins_1_1 -->
<g id="node54" class="node"><title>jenkins_1_1</title>
<g id="a_node54"><a xlink:href="http://jenkins/job/ebl_verify_autotest/1/" xlink:title="hil 2\l">
<path fill="#dddddd" stroke="none" d="M174.583,-23.5C174.583,-23.5 147.417,-23.5 147.417,-23.5 143.583,-23.5 139.75,-19.6667 139.75,-15.8333 139.75,-15.8333 139.75,-8.16667 139.75,-8.16667 139.75,-4.33333 143.583,-0.5 147.417,-0.5 147.417,-0.5 174.583,-0.5 174.583,-0.5 178.417,-0.5 182.25,-4.33333 182.25,-8.16667 182.25,-8.16667 182.25,-15.8333 182.25,-15.8333 182.25,-19.6667 178.417,-23.5 174.583,-23.5"/>
<text text-anchor="start" x="147.5" y="-8.3" font-family="Ubuntu" font-size="14.00" fill="#8888ff">hil 2</text>
</a>
</g>
</g>
<!-- error_1&#45;&gt;jenkins_1_1 -->
<g id="edge44" class="edge"><title>error_1&#45;&gt;jenkins_1_1</title>
<path fill="none" stroke="#bbbbbb" d="M161,-24.1976C161,-24.0395 161,-23.8825 161,-23.7268"/>
<polygon fill="#bbbbbb" stroke="#bbbbbb" points="157.5,-21.9843 161,-31.9844 164.5,-21.9844 157.5,-21.9843"/>
</g>
<!-- error_2 -->
<g id="node3" class="node"><title>error_2</title>
<polygon fill="#333333" stroke="none" points="227.25,-800 98.75,-800 98.75,-732 227.25,-732 227.25,-800"/>
<text text-anchor="middle" x="163" y="-784.8" font-family="Ubuntu" font-size="14.00" fill="#ffaa66">rtcseleniumerror:</text>
<text text-anchor="middle" x="163" y="-769.8" font-family="Ubuntu" font-size="14.00" fill="#ffaa66">timed</text>
<text text-anchor="middle" x="163" y="-754.8" font-family="Ubuntu" font-size="14.00" fill="#ffaa66">out</text>
<text text-anchor="start" x="106.5" y="-739.8" font-family="Ubuntu" font-size="14.00" fill="#ffaa66">wa</text>
</g>
<!-- jenkins_52_2 -->
<g id="node10" class="node"><title>jenkins_52_2</title>
<g id="a_node10"><a xlink:href="http://jenkins/job/ebl_verify_autotest/52/" xlink:title="hil 2\l">
<path fill="#dddddd" stroke="none" d="M176.583,-723.5C176.583,-723.5 149.417,-723.5 149.417,-723.5 145.583,-723.5 141.75,-719.667 141.75,-715.833 141.75,-715.833 141.75,-708.167 141.75,-708.167 141.75,-704.333 145.583,-700.5 149.417,-700.5 149.417,-700.5 176.583,-700.5 176.583,-700.5 180.417,-700.5 184.25,-704.333 184.25,-708.167 184.25,-708.167 184.25,-715.833 184.25,-715.833 184.25,-719.667 180.417,-723.5 176.583,-723.5"/>
<text text-anchor="start" x="149.5" y="-708.3" font-family="Ubuntu" font-size="14.00" fill="#8888ff">hil 2</text>
</a>
</g>
</g>
<!-- error_2&#45;&gt;jenkins_52_2 -->
<g id="edge45" class="edge"><title>error_2&#45;&gt;jenkins_52_2</title>
<path fill="none" stroke="#bbbbbb" d="M163,-724.175C163,-724.02 163,-723.865 163,-723.711"/>
<polygon fill="#bbbbbb" stroke="#bbbbbb" points="159.5,-721.773 163,-731.773 166.5,-721.773 159.5,-721.773"/>
</g>
<!-- jenkins_buildnum -->
<g id="node4" class="node"><title>jenkins_buildnum</title>
<polygon fill="#ffcc00" stroke="none" points="317,-893.5 207,-893.5 207,-870.5 317,-870.5 317,-893.5"/>
<text text-anchor="start" x="215" y="-878.3" font-family="Ubuntu" font-size="14.00" fill="#000000">Autotest Build</text>
</g>
<!-- jenkins_9 -->
<g id="node5" class="node"><title>jenkins_9</title>
<g id="a_node5"><a xlink:href="http://jenkins/job/ebl_verify_autotest/9/" xlink:title="9\l">
<polygon fill="#8888ff" stroke="none" points="274.25,-831.5 249.75,-831.5 249.75,-808.5 274.25,-808.5 274.25,-831.5"/>
<text text-anchor="start" x="257.5" y="-816.3" font-family="Ubuntu" font-size="14.00" fill="#ffffff">9</text>
</a>
</g>
</g>
<!-- jenkins_buildnum&#45;&gt;jenkins_9 -->
<g id="edge1" class="edge"><title>jenkins_buildnum&#45;&gt;jenkins_9</title>
<path fill="none" stroke="#bbbbbb" d="M262,-870.273C262,-859.352 262,-842.521 262,-831.634"/>
</g>
<!-- jenkins_6 -->
<g id="node7" class="node"><title>jenkins_6</title>
<g id="a_node7"><a xlink:href="http://jenkins/job/ebl_verify_autotest/6/" xlink:title="6\l">
<polygon fill="#8888ff" stroke="none" points="274.25,-777.5 249.75,-777.5 249.75,-754.5 274.25,-754.5 274.25,-777.5"/>
<text text-anchor="start" x="257.5" y="-762.3" font-family="Ubuntu" font-size="14.00" fill="#ffffff">6</text>
</a>
</g>
</g>
<!-- jenkins_9&#45;&gt;jenkins_6 -->
<g id="edge2" class="edge"><title>jenkins_9&#45;&gt;jenkins_6</title>
<path fill="none" stroke="#bbbbbb" d="M262,-808.477C262,-799.455 262,-786.525 262,-777.507"/>
</g>
<!-- jenkins_6_0 -->
<g id="node8" class="node"><title>jenkins_6_0</title>
<g id="a_node8"><a xlink:href="http://jenkins/job/ebl_verify_autotest/6/" xlink:title="hil 3\l">
<path fill="#dddddd" stroke="none" d="M68.5833,-777.5C68.5833,-777.5 41.4167,-777.5 41.4167,-777.5 37.5833,-777.5 33.75,-773.667 33.75,-769.833 33.75,-769.833 33.75,-762.167 33.75,-762.167 33.75,-758.333 37.5833,-754.5 41.4167,-754.5 41.4167,-754.5 68.5833,-754.5 68.5833,-754.5 72.4167,-754.5 76.25,-758.333 76.25,-762.167 76.25,-762.167 76.25,-769.833 76.25,-769.833 76.25,-773.667 72.4167,-777.5 68.5833,-777.5"/>
<text text-anchor="start" x="41.5" y="-762.3" font-family="Ubuntu" font-size="14.00" fill="#8888ff">hil 3</text>
</a>
</g>
</g>
<!-- jenkins_9_0&#45;&gt;jenkins_6_0 -->
<g id="edge25" class="edge"><title>jenkins_9_0&#45;&gt;jenkins_6_0</title>
<path fill="none" stroke="#bbbbbb" d="M55,-808.477C55,-799.455 55,-786.525 55,-777.507"/>
</g>
<!-- jenkins_52 -->
<g id="node9" class="node"><title>jenkins_52</title>
<g id="a_node9"><a xlink:href="http://jenkins/job/ebl_verify_autotest/52/" xlink:title="52\l">
<polygon fill="#8888ff" stroke="none" points="278.25,-723.5 245.75,-723.5 245.75,-700.5 278.25,-700.5 278.25,-723.5"/>
<text text-anchor="start" x="253.5" y="-708.3" font-family="Ubuntu" font-size="14.00" fill="#ffffff">52</text>
</a>
</g>
</g>
<!-- jenkins_6&#45;&gt;jenkins_52 -->
<g id="edge3" class="edge"><title>jenkins_6&#45;&gt;jenkins_52</title>
<path fill="none" stroke="#bbbbbb" d="M262,-754.477C262,-745.455 262,-732.525 262,-723.507"/>
</g>
<!-- jenkins_50_0 -->
<g id="node14" class="node"><title>jenkins_50_0</title>
<g id="a_node14"><a xlink:href="http://jenkins/job/ebl_verify_autotest/50/" xlink:title="hil 4\l">
<path fill="#dddddd" stroke="none" d="M68.5833,-659.5C68.5833,-659.5 41.4167,-659.5 41.4167,-659.5 37.5833,-659.5 33.75,-655.667 33.75,-651.833 33.75,-651.833 33.75,-644.167 33.75,-644.167 33.75,-640.333 37.5833,-636.5 41.4167,-636.5 41.4167,-636.5 68.5833,-636.5 68.5833,-636.5 72.4167,-636.5 76.25,-640.333 76.25,-644.167 76.25,-644.167 76.25,-651.833 76.25,-651.833 76.25,-655.667 72.4167,-659.5 68.5833,-659.5"/>
<text text-anchor="start" x="41.5" y="-644.3" font-family="Ubuntu" font-size="14.00" fill="#8888ff">hil 4</text>
</a>
</g>
</g>
<!-- jenkins_6_0&#45;&gt;jenkins_50_0 -->
<g id="edge26" class="edge"><title>jenkins_6_0&#45;&gt;jenkins_50_0</title>
<path fill="none" stroke="#bbbbbb" d="M55,-754.295C55,-732.196 55,-681.756 55,-659.679"/>
</g>
<!-- jenkins_51 -->
<g id="node11" class="node"><title>jenkins_51</title>
<g id="a_node11"><a xlink:href="http://jenkins/job/ebl_verify_autotest/51/" xlink:title="51\l">
<polygon fill="#8888ff" stroke="none" points="278.25,-691.5 245.75,-691.5 245.75,-668.5 278.25,-668.5 278.25,-691.5"/>
<text text-anchor="start" x="253.5" y="-676.3" font-family="Ubuntu" font-size="14.00" fill="#ffffff">51</text>
</a>
</g>
</g>
<!-- jenkins_52&#45;&gt;jenkins_51 -->
<g id="edge4" class="edge"><title>jenkins_52&#45;&gt;jenkins_51</title>
<path fill="none" stroke="#bbbbbb" d="M262,-700.169C262,-697.35 262,-694.317 262,-691.514"/>
</g>
<!-- jenkins_51_2 -->
<g id="node12" class="node"><title>jenkins_51_2</title>
<g id="a_node12"><a xlink:href="http://jenkins/job/ebl_verify_autotest/51/" xlink:title="hil 2\l">
<path fill="#dddddd" stroke="none" d="M176.583,-691.5C176.583,-691.5 149.417,-691.5 149.417,-691.5 145.583,-691.5 141.75,-687.667 141.75,-683.833 141.75,-683.833 141.75,-676.167 141.75,-676.167 141.75,-672.333 145.583,-668.5 149.417,-668.5 149.417,-668.5 176.583,-668.5 176.583,-668.5 180.417,-668.5 184.25,-672.333 184.25,-676.167 184.25,-676.167 184.25,-683.833 184.25,-683.833 184.25,-687.667 180.417,-691.5 176.583,-691.5"/>
<text text-anchor="start" x="149.5" y="-676.3" font-family="Ubuntu" font-size="14.00" fill="#8888ff">hil 2</text>
</a>
</g>
</g>
<!-- jenkins_52_2&#45;&gt;jenkins_51_2 -->
<g id="edge46" class="edge"><title>jenkins_52_2&#45;&gt;jenkins_51_2</title>
<path fill="none" stroke="#bbbbbb" d="M163,-700.169C163,-697.35 163,-694.317 163,-691.514"/>
</g>
<!-- jenkins_50 -->
<g id="node13" class="node"><title>jenkins_50</title>
<g id="a_node13"><a xlink:href="http://jenkins/job/ebl_verify_autotest/50/" xlink:title="50\l">
<polygon fill="#8888ff" stroke="none" points="278.25,-659.5 245.75,-659.5 245.75,-636.5 278.25,-636.5 278.25,-659.5"/>
<text text-anchor="start" x="253.5" y="-644.3" font-family="Ubuntu" font-size="14.00" fill="#ffffff">50</text>
</a>
</g>
</g>
<!-- jenkins_51&#45;&gt;jenkins_50 -->
<g id="edge5" class="edge"><title>jenkins_51&#45;&gt;jenkins_50</title>
<path fill="none" stroke="#bbbbbb" d="M262,-668.169C262,-665.35 262,-662.317 262,-659.514"/>
</g>
<!-- jenkins_46_2 -->
<g id="node25" class="node"><title>jenkins_46_2</title>
<g id="a_node25"><a xlink:href="http://jenkins/job/ebl_verify_autotest/46/" xlink:title="hil 3\l">
<path fill="#dddddd" stroke="none" d="M176.583,-499.5C176.583,-499.5 149.417,-499.5 149.417,-499.5 145.583,-499.5 141.75,-495.667 141.75,-491.833 141.75,-491.833 141.75,-484.167 141.75,-484.167 141.75,-480.333 145.583,-476.5 149.417,-476.5 149.417,-476.5 176.583,-476.5 176.583,-476.5 180.417,-476.5 184.25,-480.333 184.25,-484.167 184.25,-484.167 184.25,-491.833 184.25,-491.833 184.25,-495.667 180.417,-499.5 176.583,-499.5"/>
<text text-anchor="start" x="149.5" y="-484.3" font-family="Ubuntu" font-size="14.00" fill="#8888ff">hil 3</text>
</a>
</g>
</g>
<!-- jenkins_51_2&#45;&gt;jenkins_46_2 -->
<g id="edge47" class="edge"><title>jenkins_51_2&#45;&gt;jenkins_46_2</title>
<path fill="none" stroke="#bbbbbb" d="M163,-668.469C163,-656.133 163,-635.083 163,-617 163,-617 163,-617 163,-551 163,-532.917 163,-511.867 163,-499.531"/>
</g>
<!-- jenkins_5 -->
<g id="node15" class="node"><title>jenkins_5</title>
<g id="a_node15"><a xlink:href="http://jenkins/job/ebl_verify_autotest/5/" xlink:title="5\l">
<polygon fill="#8888ff" stroke="none" points="274.25,-627.5 249.75,-627.5 249.75,-604.5 274.25,-604.5 274.25,-627.5"/>
<text text-anchor="start" x="257.5" y="-612.3" font-family="Ubuntu" font-size="14.00" fill="#ffffff">5</text>
</a>
</g>
</g>
<!-- jenkins_50&#45;&gt;jenkins_5 -->
<g id="edge6" class="edge"><title>jenkins_50&#45;&gt;jenkins_5</title>
<path fill="none" stroke="#bbbbbb" d="M262,-636.169C262,-633.35 262,-630.317 262,-627.514"/>
</g>
<!-- jenkins_5_0 -->
<g id="node16" class="node"><title>jenkins_5_0</title>
<g id="a_node16"><a xlink:href="http://jenkins/job/ebl_verify_autotest/5/" xlink:title="hil 2\l">
<path fill="#dddddd" stroke="none" d="M68.5833,-627.5C68.5833,-627.5 41.4167,-627.5 41.4167,-627.5 37.5833,-627.5 33.75,-623.667 33.75,-619.833 33.75,-619.833 33.75,-612.167 33.75,-612.167 33.75,-608.333 37.5833,-604.5 41.4167,-604.5 41.4167,-604.5 68.5833,-604.5 68.5833,-604.5 72.4167,-604.5 76.25,-608.333 76.25,-612.167 76.25,-612.167 76.25,-619.833 76.25,-619.833 76.25,-623.667 72.4167,-627.5 68.5833,-627.5"/>
<text text-anchor="start" x="41.5" y="-612.3" font-family="Ubuntu" font-size="14.00" fill="#8888ff">hil 2</text>
</a>
</g>
</g>
<!-- jenkins_50_0&#45;&gt;jenkins_5_0 -->
<g id="edge27" class="edge"><title>jenkins_50_0&#45;&gt;jenkins_5_0</title>
<path fill="none" stroke="#bbbbbb" d="M55,-636.169C55,-633.35 55,-630.317 55,-627.514"/>
</g>
<!-- jenkins_49 -->
<g id="node17" class="node"><title>jenkins_49</title>
<g id="a_node17"><a xlink:href="http://jenkins/job/ebl_verify_autotest/49/" xlink:title="49\l">
<polygon fill="#8888ff" stroke="none" points="278.25,-595.5 245.75,-595.5 245.75,-572.5 278.25,-572.5 278.25,-595.5"/>
<text text-anchor="start" x="253.5" y="-580.3" font-family="Ubuntu" font-size="14.00" fill="#ffffff">49</text>
</a>
</g>
</g>
<!-- jenkins_5&#45;&gt;jenkins_49 -->
<g id="edge7" class="edge"><title>jenkins_5&#45;&gt;jenkins_49</title>
<path fill="none" stroke="#bbbbbb" d="M262,-604.169C262,-601.35 262,-598.317 262,-595.514"/>
</g>
<!-- jenkins_49_0 -->
<g id="node18" class="node"><title>jenkins_49_0</title>
<g id="a_node18"><a xlink:href="http://jenkins/job/ebl_verify_autotest/49/" xlink:title="hil 4\l">
<path fill="#dddddd" stroke="none" d="M68.5833,-595.5C68.5833,-595.5 41.4167,-595.5 41.4167,-595.5 37.5833,-595.5 33.75,-591.667 33.75,-587.833 33.75,-587.833 33.75,-580.167 33.75,-580.167 33.75,-576.333 37.5833,-572.5 41.4167,-572.5 41.4167,-572.5 68.5833,-572.5 68.5833,-572.5 72.4167,-572.5 76.25,-576.333 76.25,-580.167 76.25,-580.167 76.25,-587.833 76.25,-587.833 76.25,-591.667 72.4167,-595.5 68.5833,-595.5"/>
<text text-anchor="start" x="41.5" y="-580.3" font-family="Ubuntu" font-size="14.00" fill="#8888ff">hil 4</text>
</a>
</g>
</g>
<!-- jenkins_5_0&#45;&gt;jenkins_49_0 -->
<g id="edge28" class="edge"><title>jenkins_5_0&#45;&gt;jenkins_49_0</title>
<path fill="none" stroke="#bbbbbb" d="M55,-604.169C55,-601.35 55,-598.317 55,-595.514"/>
</g>
<!-- jenkins_48 -->
<g id="node19" class="node"><title>jenkins_48</title>
<g id="a_node19"><a xlink:href="http://jenkins/job/ebl_verify_autotest/48/" xlink:title="48\l">
<polygon fill="#8888ff" stroke="none" points="278.25,-563.5 245.75,-563.5 245.75,-540.5 278.25,-540.5 278.25,-563.5"/>
<text text-anchor="start" x="253.5" y="-548.3" font-family="Ubuntu" font-size="14.00" fill="#ffffff">48</text>
</a>
</g>
</g>
<!-- jenkins_49&#45;&gt;jenkins_48 -->
<g id="edge8" class="edge"><title>jenkins_49&#45;&gt;jenkins_48</title>
<path fill="none" stroke="#bbbbbb" d="M262,-572.169C262,-569.35 262,-566.317 262,-563.514"/>
</g>
<!-- jenkins_48_0 -->
<g id="node20" class="node"><title>jenkins_48_0</title>
<g id="a_node20"><a xlink:href="http://jenkins/job/ebl_verify_autotest/48/" xlink:title="hil 3\l">
<path fill="#dddddd" stroke="none" d="M68.5833,-563.5C68.5833,-563.5 41.4167,-563.5 41.4167,-563.5 37.5833,-563.5 33.75,-559.667 33.75,-555.833 33.75,-555.833 33.75,-548.167 33.75,-548.167 33.75,-544.333 37.5833,-540.5 41.4167,-540.5 41.4167,-540.5 68.5833,-540.5 68.5833,-540.5 72.4167,-540.5 76.25,-544.333 76.25,-548.167 76.25,-548.167 76.25,-555.833 76.25,-555.833 76.25,-559.667 72.4167,-563.5 68.5833,-563.5"/>
<text text-anchor="start" x="41.5" y="-548.3" font-family="Ubuntu" font-size="14.00" fill="#8888ff">hil 3</text>
</a>
</g>
</g>
<!-- jenkins_49_0&#45;&gt;jenkins_48_0 -->
<g id="edge29" class="edge"><title>jenkins_49_0&#45;&gt;jenkins_48_0</title>
<path fill="none" stroke="#bbbbbb" d="M55,-572.169C55,-569.35 55,-566.317 55,-563.514"/>
</g>
<!-- jenkins_47 -->
<g id="node21" class="node"><title>jenkins_47</title>
<g id="a_node21"><a xlink:href="http://jenkins/job/ebl_verify_autotest/47/" xlink:title="47\l">
<polygon fill="#8888ff" stroke="none" points="278.25,-531.5 245.75,-531.5 245.75,-508.5 278.25,-508.5 278.25,-531.5"/>
<text text-anchor="start" x="253.5" y="-516.3" font-family="Ubuntu" font-size="14.00" fill="#ffffff">47</text>
</a>
</g>
</g>
<!-- jenkins_48&#45;&gt;jenkins_47 -->
<g id="edge9" class="edge"><title>jenkins_48&#45;&gt;jenkins_47</title>
<path fill="none" stroke="#bbbbbb" d="M262,-540.169C262,-537.35 262,-534.317 262,-531.514"/>
</g>
<!-- jenkins_47_0 -->
<g id="node22" class="node"><title>jenkins_47_0</title>
<g id="a_node22"><a xlink:href="http://jenkins/job/ebl_verify_autotest/47/" xlink:title="hil 4\l">
<path fill="#dddddd" stroke="none" d="M68.5833,-531.5C68.5833,-531.5 41.4167,-531.5 41.4167,-531.5 37.5833,-531.5 33.75,-527.667 33.75,-523.833 33.75,-523.833 33.75,-516.167 33.75,-516.167 33.75,-512.333 37.5833,-508.5 41.4167,-508.5 41.4167,-508.5 68.5833,-508.5 68.5833,-508.5 72.4167,-508.5 76.25,-512.333 76.25,-516.167 76.25,-516.167 76.25,-523.833 76.25,-523.833 76.25,-527.667 72.4167,-531.5 68.5833,-531.5"/>
<text text-anchor="start" x="41.5" y="-516.3" font-family="Ubuntu" font-size="14.00" fill="#8888ff">hil 4</text>
</a>
</g>
</g>
<!-- jenkins_48_0&#45;&gt;jenkins_47_0 -->
<g id="edge30" class="edge"><title>jenkins_48_0&#45;&gt;jenkins_47_0</title>
<path fill="none" stroke="#bbbbbb" d="M55,-540.169C55,-537.35 55,-534.317 55,-531.514"/>
</g>
<!-- jenkins_46 -->
<g id="node23" class="node"><title>jenkins_46</title>
<g id="a_node23"><a xlink:href="http://jenkins/job/ebl_verify_autotest/46/" xlink:title="46\l">
<polygon fill="#8888ff" stroke="none" points="278.25,-499.5 245.75,-499.5 245.75,-476.5 278.25,-476.5 278.25,-499.5"/>
<text text-anchor="start" x="253.5" y="-484.3" font-family="Ubuntu" font-size="14.00" fill="#ffffff">46</text>
</a>
</g>
</g>
<!-- jenkins_47&#45;&gt;jenkins_46 -->
<g id="edge10" class="edge"><title>jenkins_47&#45;&gt;jenkins_46</title>
<path fill="none" stroke="#bbbbbb" d="M262,-508.169C262,-505.35 262,-502.317 262,-499.514"/>
</g>
<!-- jenkins_46_0 -->
<g id="node24" class="node"><title>jenkins_46_0</title>
<g id="a_node24"><a xlink:href="http://jenkins/job/ebl_verify_autotest/46/" xlink:title="hil 3\l">
<path fill="#dddddd" stroke="none" d="M68.5833,-499.5C68.5833,-499.5 41.4167,-499.5 41.4167,-499.5 37.5833,-499.5 33.75,-495.667 33.75,-491.833 33.75,-491.833 33.75,-484.167 33.75,-484.167 33.75,-480.333 37.5833,-476.5 41.4167,-476.5 41.4167,-476.5 68.5833,-476.5 68.5833,-476.5 72.4167,-476.5 76.25,-480.333 76.25,-484.167 76.25,-484.167 76.25,-491.833 76.25,-491.833 76.25,-495.667 72.4167,-499.5 68.5833,-499.5"/>
<text text-anchor="start" x="41.5" y="-484.3" font-family="Ubuntu" font-size="14.00" fill="#8888ff">hil 3</text>
</a>
</g>
</g>
<!-- jenkins_47_0&#45;&gt;jenkins_46_0 -->
<g id="edge31" class="edge"><title>jenkins_47_0&#45;&gt;jenkins_46_0</title>
<path fill="none" stroke="#bbbbbb" d="M55,-508.169C55,-505.35 55,-502.317 55,-499.514"/>
</g>
<!-- jenkins_45 -->
<g id="node26" class="node"><title>jenkins_45</title>
<g id="a_node26"><a xlink:href="http://jenkins/job/ebl_verify_autotest/45/" xlink:title="45\l">
<polygon fill="#8888ff" stroke="none" points="278.25,-467.5 245.75,-467.5 245.75,-444.5 278.25,-444.5 278.25,-467.5"/>
<text text-anchor="start" x="253.5" y="-452.3" font-family="Ubuntu" font-size="14.00" fill="#ffffff">45</text>
</a>
</g>
</g>
<!-- jenkins_46&#45;&gt;jenkins_45 -->
<g id="edge11" class="edge"><title>jenkins_46&#45;&gt;jenkins_45</title>
<path fill="none" stroke="#bbbbbb" d="M262,-476.169C262,-473.35 262,-470.317 262,-467.514"/>
</g>
<!-- jenkins_45_0 -->
<g id="node27" class="node"><title>jenkins_45_0</title>
<g id="a_node27"><a xlink:href="http://jenkins/job/ebl_verify_autotest/45/" xlink:title="hil 3\l">
<path fill="#dddddd" stroke="none" d="M68.5833,-467.5C68.5833,-467.5 41.4167,-467.5 41.4167,-467.5 37.5833,-467.5 33.75,-463.667 33.75,-459.833 33.75,-459.833 33.75,-452.167 33.75,-452.167 33.75,-448.333 37.5833,-444.5 41.4167,-444.5 41.4167,-444.5 68.5833,-444.5 68.5833,-444.5 72.4167,-444.5 76.25,-448.333 76.25,-452.167 76.25,-452.167 76.25,-459.833 76.25,-459.833 76.25,-463.667 72.4167,-467.5 68.5833,-467.5"/>
<text text-anchor="start" x="41.5" y="-452.3" font-family="Ubuntu" font-size="14.00" fill="#8888ff">hil 3</text>
</a>
</g>
</g>
<!-- jenkins_46_0&#45;&gt;jenkins_45_0 -->
<g id="edge32" class="edge"><title>jenkins_46_0&#45;&gt;jenkins_45_0</title>
<path fill="none" stroke="#bbbbbb" d="M55,-476.169C55,-473.35 55,-470.317 55,-467.514"/>
</g>
<!-- jenkins_43_2 -->
<g id="node32" class="node"><title>jenkins_43_2</title>
<g id="a_node32"><a xlink:href="http://jenkins/job/ebl_verify_autotest/43/" xlink:title="hil 4\l">
<path fill="#dddddd" stroke="none" d="M176.583,-403.5C176.583,-403.5 149.417,-403.5 149.417,-403.5 145.583,-403.5 141.75,-399.667 141.75,-395.833 141.75,-395.833 141.75,-388.167 141.75,-388.167 141.75,-384.333 145.583,-380.5 149.417,-380.5 149.417,-380.5 176.583,-380.5 176.583,-380.5 180.417,-380.5 184.25,-384.333 184.25,-388.167 184.25,-388.167 184.25,-395.833 184.25,-395.833 184.25,-399.667 180.417,-403.5 176.583,-403.5"/>
<text text-anchor="start" x="149.5" y="-388.3" font-family="Ubuntu" font-size="14.00" fill="#8888ff">hil 4</text>
</a>
</g>
</g>
<!-- jenkins_46_2&#45;&gt;jenkins_43_2 -->
<g id="edge48" class="edge"><title>jenkins_46_2&#45;&gt;jenkins_43_2</title>
<path fill="none" stroke="#bbbbbb" d="M163,-476.217C163,-458.085 163,-421.705 163,-403.657"/>
</g>
<!-- jenkins_44 -->
<g id="node28" class="node"><title>jenkins_44</title>
<g id="a_node28"><a xlink:href="http://jenkins/job/ebl_verify_autotest/44/" xlink:title="44\l">
<polygon fill="#8888ff" stroke="none" points="278.25,-435.5 245.75,-435.5 245.75,-412.5 278.25,-412.5 278.25,-435.5"/>
<text text-anchor="start" x="253.5" y="-420.3" font-family="Ubuntu" font-size="14.00" fill="#ffffff">44</text>
</a>
</g>
</g>
<!-- jenkins_45&#45;&gt;jenkins_44 -->
<g id="edge12" class="edge"><title>jenkins_45&#45;&gt;jenkins_44</title>
<path fill="none" stroke="#bbbbbb" d="M262,-444.169C262,-441.35 262,-438.317 262,-435.514"/>
</g>
<!-- jenkins_44_0 -->
<g id="node29" class="node"><title>jenkins_44_0</title>
<g id="a_node29"><a xlink:href="http://jenkins/job/ebl_verify_autotest/44/" xlink:title="hil 4\l">
<path fill="#dddddd" stroke="none" d="M68.5833,-435.5C68.5833,-435.5 41.4167,-435.5 41.4167,-435.5 37.5833,-435.5 33.75,-431.667 33.75,-427.833 33.75,-427.833 33.75,-420.167 33.75,-420.167 33.75,-416.333 37.5833,-412.5 41.4167,-412.5 41.4167,-412.5 68.5833,-412.5 68.5833,-412.5 72.4167,-412.5 76.25,-416.333 76.25,-420.167 76.25,-420.167 76.25,-427.833 76.25,-427.833 76.25,-431.667 72.4167,-435.5 68.5833,-435.5"/>
<text text-anchor="start" x="41.5" y="-420.3" font-family="Ubuntu" font-size="14.00" fill="#8888ff">hil 4</text>
</a>
</g>
</g>
<!-- jenkins_45_0&#45;&gt;jenkins_44_0 -->
<g id="edge33" class="edge"><title>jenkins_45_0&#45;&gt;jenkins_44_0</title>
<path fill="none" stroke="#bbbbbb" d="M55,-444.169C55,-441.35 55,-438.317 55,-435.514"/>
</g>
<!-- jenkins_43 -->
<g id="node30" class="node"><title>jenkins_43</title>
<g id="a_node30"><a xlink:href="http://jenkins/job/ebl_verify_autotest/43/" xlink:title="43\l">
<polygon fill="#8888ff" stroke="none" points="278.25,-403.5 245.75,-403.5 245.75,-380.5 278.25,-380.5 278.25,-403.5"/>
<text text-anchor="start" x="253.5" y="-388.3" font-family="Ubuntu" font-size="14.00" fill="#ffffff">43</text>
</a>
</g>
</g>
<!-- jenkins_44&#45;&gt;jenkins_43 -->
<g id="edge13" class="edge"><title>jenkins_44&#45;&gt;jenkins_43</title>
<path fill="none" stroke="#bbbbbb" d="M262,-412.169C262,-409.35 262,-406.317 262,-403.514"/>
</g>
<!-- jenkins_43_0 -->
<g id="node31" class="node"><title>jenkins_43_0</title>
<g id="a_node31"><a xlink:href="http://jenkins/job/ebl_verify_autotest/43/" xlink:title="hil 4\l">
<path fill="#dddddd" stroke="none" d="M68.5833,-403.5C68.5833,-403.5 41.4167,-403.5 41.4167,-403.5 37.5833,-403.5 33.75,-399.667 33.75,-395.833 33.75,-395.833 33.75,-388.167 33.75,-388.167 33.75,-384.333 37.5833,-380.5 41.4167,-380.5 41.4167,-380.5 68.5833,-380.5 68.5833,-380.5 72.4167,-380.5 76.25,-384.333 76.25,-388.167 76.25,-388.167 76.25,-395.833 76.25,-395.833 76.25,-399.667 72.4167,-403.5 68.5833,-403.5"/>
<text text-anchor="start" x="41.5" y="-388.3" font-family="Ubuntu" font-size="14.00" fill="#8888ff">hil 4</text>
</a>
</g>
</g>
<!-- jenkins_44_0&#45;&gt;jenkins_43_0 -->
<g id="edge34" class="edge"><title>jenkins_44_0&#45;&gt;jenkins_43_0</title>
<path fill="none" stroke="#bbbbbb" d="M55,-412.169C55,-409.35 55,-406.317 55,-403.514"/>
</g>
<!-- jenkins_42 -->
<g id="node33" class="node"><title>jenkins_42</title>
<g id="a_node33"><a xlink:href="http://jenkins/job/ebl_verify_autotest/42/" xlink:title="42\l">
<polygon fill="#8888ff" stroke="none" points="278.25,-371.5 245.75,-371.5 245.75,-348.5 278.25,-348.5 278.25,-371.5"/>
<text text-anchor="start" x="253.5" y="-356.3" font-family="Ubuntu" font-size="14.00" fill="#ffffff">42</text>
</a>
</g>
</g>
<!-- jenkins_43&#45;&gt;jenkins_42 -->
<g id="edge14" class="edge"><title>jenkins_43&#45;&gt;jenkins_42</title>
<path fill="none" stroke="#bbbbbb" d="M262,-380.169C262,-377.35 262,-374.317 262,-371.514"/>
</g>
<!-- jenkins_42_0 -->
<g id="node34" class="node"><title>jenkins_42_0</title>
<g id="a_node34"><a xlink:href="http://jenkins/job/ebl_verify_autotest/42/" xlink:title="hil 3\l">
<path fill="#dddddd" stroke="none" d="M68.5833,-371.5C68.5833,-371.5 41.4167,-371.5 41.4167,-371.5 37.5833,-371.5 33.75,-367.667 33.75,-363.833 33.75,-363.833 33.75,-356.167 33.75,-356.167 33.75,-352.333 37.5833,-348.5 41.4167,-348.5 41.4167,-348.5 68.5833,-348.5 68.5833,-348.5 72.4167,-348.5 76.25,-352.333 76.25,-356.167 76.25,-356.167 76.25,-363.833 76.25,-363.833 76.25,-367.667 72.4167,-371.5 68.5833,-371.5"/>
<text text-anchor="start" x="41.5" y="-356.3" font-family="Ubuntu" font-size="14.00" fill="#8888ff">hil 3</text>
</a>
</g>
</g>
<!-- jenkins_43_0&#45;&gt;jenkins_42_0 -->
<g id="edge35" class="edge"><title>jenkins_43_0&#45;&gt;jenkins_42_0</title>
<path fill="none" stroke="#bbbbbb" d="M55,-380.169C55,-377.35 55,-374.317 55,-371.514"/>
</g>
<!-- jenkins_42_2 -->
<g id="node35" class="node"><title>jenkins_42_2</title>
<g id="a_node35"><a xlink:href="http://jenkins/job/ebl_verify_autotest/42/" xlink:title="hil 3\l">
<path fill="#dddddd" stroke="none" d="M176.583,-371.5C176.583,-371.5 149.417,-371.5 149.417,-371.5 145.583,-371.5 141.75,-367.667 141.75,-363.833 141.75,-363.833 141.75,-356.167 141.75,-356.167 141.75,-352.333 145.583,-348.5 149.417,-348.5 149.417,-348.5 176.583,-348.5 176.583,-348.5 180.417,-348.5 184.25,-352.333 184.25,-356.167 184.25,-356.167 184.25,-363.833 184.25,-363.833 184.25,-367.667 180.417,-371.5 176.583,-371.5"/>
<text text-anchor="start" x="149.5" y="-356.3" font-family="Ubuntu" font-size="14.00" fill="#8888ff">hil 3</text>
</a>
</g>
</g>
<!-- jenkins_43_2&#45;&gt;jenkins_42_2 -->
<g id="edge49" class="edge"><title>jenkins_43_2&#45;&gt;jenkins_42_2</title>
<path fill="none" stroke="#bbbbbb" d="M163,-380.169C163,-377.35 163,-374.317 163,-371.514"/>
</g>
<!-- jenkins_41 -->
<g id="node36" class="node"><title>jenkins_41</title>
<g id="a_node36"><a xlink:href="http://jenkins/job/ebl_verify_autotest/41/" xlink:title="41\l">
<polygon fill="#8888ff" stroke="none" points="278.25,-339.5 245.75,-339.5 245.75,-316.5 278.25,-316.5 278.25,-339.5"/>
<text text-anchor="start" x="253.5" y="-324.3" font-family="Ubuntu" font-size="14.00" fill="#ffffff">41</text>
</a>
</g>
</g>
<!-- jenkins_42&#45;&gt;jenkins_41 -->
<g id="edge15" class="edge"><title>jenkins_42&#45;&gt;jenkins_41</title>
<path fill="none" stroke="#bbbbbb" d="M262,-348.169C262,-345.35 262,-342.317 262,-339.514"/>
</g>
<!-- jenkins_41_0 -->
<g id="node37" class="node"><title>jenkins_41_0</title>
<g id="a_node37"><a xlink:href="http://jenkins/job/ebl_verify_autotest/41/" xlink:title="hil 4\l">
<path fill="#dddddd" stroke="none" d="M68.5833,-339.5C68.5833,-339.5 41.4167,-339.5 41.4167,-339.5 37.5833,-339.5 33.75,-335.667 33.75,-331.833 33.75,-331.833 33.75,-324.167 33.75,-324.167 33.75,-320.333 37.5833,-316.5 41.4167,-316.5 41.4167,-316.5 68.5833,-316.5 68.5833,-316.5 72.4167,-316.5 76.25,-320.333 76.25,-324.167 76.25,-324.167 76.25,-331.833 76.25,-331.833 76.25,-335.667 72.4167,-339.5 68.5833,-339.5"/>
<text text-anchor="start" x="41.5" y="-324.3" font-family="Ubuntu" font-size="14.00" fill="#8888ff">hil 4</text>
</a>
</g>
</g>
<!-- jenkins_42_0&#45;&gt;jenkins_41_0 -->
<g id="edge36" class="edge"><title>jenkins_42_0&#45;&gt;jenkins_41_0</title>
<path fill="none" stroke="#bbbbbb" d="M55,-348.169C55,-345.35 55,-342.317 55,-339.514"/>
</g>
<!-- jenkins_41_2 -->
<g id="node38" class="node"><title>jenkins_41_2</title>
<g id="a_node38"><a xlink:href="http://jenkins/job/ebl_verify_autotest/41/" xlink:title="hil 4\l">
<path fill="#dddddd" stroke="none" d="M176.583,-339.5C176.583,-339.5 149.417,-339.5 149.417,-339.5 145.583,-339.5 141.75,-335.667 141.75,-331.833 141.75,-331.833 141.75,-324.167 141.75,-324.167 141.75,-320.333 145.583,-316.5 149.417,-316.5 149.417,-316.5 176.583,-316.5 176.583,-316.5 180.417,-316.5 184.25,-320.333 184.25,-324.167 184.25,-324.167 184.25,-331.833 184.25,-331.833 184.25,-335.667 180.417,-339.5 176.583,-339.5"/>
<text text-anchor="start" x="149.5" y="-324.3" font-family="Ubuntu" font-size="14.00" fill="#8888ff">hil 4</text>
</a>
</g>
</g>
<!-- jenkins_42_2&#45;&gt;jenkins_41_2 -->
<g id="edge50" class="edge"><title>jenkins_42_2&#45;&gt;jenkins_41_2</title>
<path fill="none" stroke="#bbbbbb" d="M163,-348.169C163,-345.35 163,-342.317 163,-339.514"/>
</g>
<!-- jenkins_40 -->
<g id="node39" class="node"><title>jenkins_40</title>
<g id="a_node39"><a xlink:href="http://jenkins/job/ebl_verify_autotest/40/" xlink:title="40\l">
<polygon fill="#8888ff" stroke="none" points="278.25,-307.5 245.75,-307.5 245.75,-284.5 278.25,-284.5 278.25,-307.5"/>
<text text-anchor="start" x="253.5" y="-292.3" font-family="Ubuntu" font-size="14.00" fill="#ffffff">40</text>
</a>
</g>
</g>
<!-- jenkins_41&#45;&gt;jenkins_40 -->
<g id="edge16" class="edge"><title>jenkins_41&#45;&gt;jenkins_40</title>
<path fill="none" stroke="#bbbbbb" d="M262,-316.169C262,-313.35 262,-310.317 262,-307.514"/>
</g>
<!-- jenkins_40_0 -->
<g id="node40" class="node"><title>jenkins_40_0</title>
<g id="a_node40"><a xlink:href="http://jenkins/job/ebl_verify_autotest/40/" xlink:title="hil 4\l">
<path fill="#dddddd" stroke="none" d="M68.5833,-307.5C68.5833,-307.5 41.4167,-307.5 41.4167,-307.5 37.5833,-307.5 33.75,-303.667 33.75,-299.833 33.75,-299.833 33.75,-292.167 33.75,-292.167 33.75,-288.333 37.5833,-284.5 41.4167,-284.5 41.4167,-284.5 68.5833,-284.5 68.5833,-284.5 72.4167,-284.5 76.25,-288.333 76.25,-292.167 76.25,-292.167 76.25,-299.833 76.25,-299.833 76.25,-303.667 72.4167,-307.5 68.5833,-307.5"/>
<text text-anchor="start" x="41.5" y="-292.3" font-family="Ubuntu" font-size="14.00" fill="#8888ff">hil 4</text>
</a>
</g>
</g>
<!-- jenkins_41_0&#45;&gt;jenkins_40_0 -->
<g id="edge37" class="edge"><title>jenkins_41_0&#45;&gt;jenkins_40_0</title>
<path fill="none" stroke="#bbbbbb" d="M55,-316.169C55,-313.35 55,-310.317 55,-307.514"/>
</g>
<!-- jenkins_39 -->
<g id="node41" class="node"><title>jenkins_39</title>
<g id="a_node41"><a xlink:href="http://jenkins/job/ebl_verify_autotest/39/" xlink:title="39\l">
<polygon fill="#8888ff" stroke="none" points="278.25,-275.5 245.75,-275.5 245.75,-252.5 278.25,-252.5 278.25,-275.5"/>
<text text-anchor="start" x="253.5" y="-260.3" font-family="Ubuntu" font-size="14.00" fill="#ffffff">39</text>
</a>
</g>
</g>
<!-- jenkins_40&#45;&gt;jenkins_39 -->
<g id="edge17" class="edge"><title>jenkins_40&#45;&gt;jenkins_39</title>
<path fill="none" stroke="#bbbbbb" d="M262,-284.169C262,-281.35 262,-278.317 262,-275.514"/>
</g>
<!-- jenkins_39_0 -->
<g id="node42" class="node"><title>jenkins_39_0</title>
<g id="a_node42"><a xlink:href="http://jenkins/job/ebl_verify_autotest/39/" xlink:title="hil 1\l">
<path fill="#dddddd" stroke="none" d="M68.5833,-275.5C68.5833,-275.5 41.4167,-275.5 41.4167,-275.5 37.5833,-275.5 33.75,-271.667 33.75,-267.833 33.75,-267.833 33.75,-260.167 33.75,-260.167 33.75,-256.333 37.5833,-252.5 41.4167,-252.5 41.4167,-252.5 68.5833,-252.5 68.5833,-252.5 72.4167,-252.5 76.25,-256.333 76.25,-260.167 76.25,-260.167 76.25,-267.833 76.25,-267.833 76.25,-271.667 72.4167,-275.5 68.5833,-275.5"/>
<text text-anchor="start" x="41.5" y="-260.3" font-family="Ubuntu" font-size="14.00" fill="#8888ff">hil 1</text>
</a>
</g>
</g>
<!-- jenkins_40_0&#45;&gt;jenkins_39_0 -->
<g id="edge38" class="edge"><title>jenkins_40_0&#45;&gt;jenkins_39_0</title>
<path fill="none" stroke="#bbbbbb" d="M55,-284.169C55,-281.35 55,-278.317 55,-275.514"/>
</g>
<!-- jenkins_38 -->
<g id="node43" class="node"><title>jenkins_38</title>
<g id="a_node43"><a xlink:href="http://jenkins/job/ebl_verify_autotest/38/" xlink:title="38\l">
<polygon fill="#8888ff" stroke="none" points="278.25,-243.5 245.75,-243.5 245.75,-220.5 278.25,-220.5 278.25,-243.5"/>
<text text-anchor="start" x="253.5" y="-228.3" font-family="Ubuntu" font-size="14.00" fill="#ffffff">38</text>
</a>
</g>
</g>
<!-- jenkins_39&#45;&gt;jenkins_38 -->
<g id="edge18" class="edge"><title>jenkins_39&#45;&gt;jenkins_38</title>
<path fill="none" stroke="#bbbbbb" d="M262,-252.169C262,-249.35 262,-246.317 262,-243.514"/>
</g>
<!-- jenkins_38_0 -->
<g id="node44" class="node"><title>jenkins_38_0</title>
<g id="a_node44"><a xlink:href="http://jenkins/job/ebl_verify_autotest/38/" xlink:title="hil 4\l">
<path fill="#dddddd" stroke="none" d="M68.5833,-243.5C68.5833,-243.5 41.4167,-243.5 41.4167,-243.5 37.5833,-243.5 33.75,-239.667 33.75,-235.833 33.75,-235.833 33.75,-228.167 33.75,-228.167 33.75,-224.333 37.5833,-220.5 41.4167,-220.5 41.4167,-220.5 68.5833,-220.5 68.5833,-220.5 72.4167,-220.5 76.25,-224.333 76.25,-228.167 76.25,-228.167 76.25,-235.833 76.25,-235.833 76.25,-239.667 72.4167,-243.5 68.5833,-243.5"/>
<text text-anchor="start" x="41.5" y="-228.3" font-family="Ubuntu" font-size="14.00" fill="#8888ff">hil 4</text>
</a>
</g>
</g>
<!-- jenkins_39_0&#45;&gt;jenkins_38_0 -->
<g id="edge39" class="edge"><title>jenkins_39_0&#45;&gt;jenkins_38_0</title>
<path fill="none" stroke="#bbbbbb" d="M55,-252.169C55,-249.35 55,-246.317 55,-243.514"/>
</g>
<!-- jenkins_37 -->
<g id="node45" class="node"><title>jenkins_37</title>
<g id="a_node45"><a xlink:href="http://jenkins/job/ebl_verify_autotest/37/" xlink:title="37\l">
<polygon fill="#8888ff" stroke="none" points="278.25,-211.5 245.75,-211.5 245.75,-188.5 278.25,-188.5 278.25,-211.5"/>
<text text-anchor="start" x="253.5" y="-196.3" font-family="Ubuntu" font-size="14.00" fill="#ffffff">37</text>
</a>
</g>
</g>
<!-- jenkins_38&#45;&gt;jenkins_37 -->
<g id="edge19" class="edge"><title>jenkins_38&#45;&gt;jenkins_37</title>
<path fill="none" stroke="#bbbbbb" d="M262,-220.169C262,-217.35 262,-214.317 262,-211.514"/>
</g>
<!-- jenkins_37_0 -->
<g id="node46" class="node"><title>jenkins_37_0</title>
<g id="a_node46"><a xlink:href="http://jenkins/job/ebl_verify_autotest/37/" xlink:title="hil 3\l">
<path fill="#dddddd" stroke="none" d="M68.5833,-211.5C68.5833,-211.5 41.4167,-211.5 41.4167,-211.5 37.5833,-211.5 33.75,-207.667 33.75,-203.833 33.75,-203.833 33.75,-196.167 33.75,-196.167 33.75,-192.333 37.5833,-188.5 41.4167,-188.5 41.4167,-188.5 68.5833,-188.5 68.5833,-188.5 72.4167,-188.5 76.25,-192.333 76.25,-196.167 76.25,-196.167 76.25,-203.833 76.25,-203.833 76.25,-207.667 72.4167,-211.5 68.5833,-211.5"/>
<text text-anchor="start" x="41.5" y="-196.3" font-family="Ubuntu" font-size="14.00" fill="#8888ff">hil 3</text>
</a>
</g>
</g>
<!-- jenkins_38_0&#45;&gt;jenkins_37_0 -->
<g id="edge40" class="edge"><title>jenkins_38_0&#45;&gt;jenkins_37_0</title>
<path fill="none" stroke="#bbbbbb" d="M55,-220.169C55,-217.35 55,-214.317 55,-211.514"/>
</g>
<!-- jenkins_35 -->
<g id="node47" class="node"><title>jenkins_35</title>
<g id="a_node47"><a xlink:href="http://jenkins/job/ebl_verify_autotest/35/" xlink:title="35\l">
<polygon fill="#8888ff" stroke="none" points="278.25,-179.5 245.75,-179.5 245.75,-156.5 278.25,-156.5 278.25,-179.5"/>
<text text-anchor="start" x="253.5" y="-164.3" font-family="Ubuntu" font-size="14.00" fill="#ffffff">35</text>
</a>
</g>
</g>
<!-- jenkins_37&#45;&gt;jenkins_35 -->
<g id="edge20" class="edge"><title>jenkins_37&#45;&gt;jenkins_35</title>
<path fill="none" stroke="#bbbbbb" d="M262,-188.169C262,-185.35 262,-182.317 262,-179.514"/>
</g>
<!-- jenkins_35_0 -->
<g id="node48" class="node"><title>jenkins_35_0</title>
<g id="a_node48"><a xlink:href="http://jenkins/job/ebl_verify_autotest/35/" xlink:title="hil 3\l">
<path fill="#dddddd" stroke="none" d="M68.5833,-179.5C68.5833,-179.5 41.4167,-179.5 41.4167,-179.5 37.5833,-179.5 33.75,-175.667 33.75,-171.833 33.75,-171.833 33.75,-164.167 33.75,-164.167 33.75,-160.333 37.5833,-156.5 41.4167,-156.5 41.4167,-156.5 68.5833,-156.5 68.5833,-156.5 72.4167,-156.5 76.25,-160.333 76.25,-164.167 76.25,-164.167 76.25,-171.833 76.25,-171.833 76.25,-175.667 72.4167,-179.5 68.5833,-179.5"/>
<text text-anchor="start" x="41.5" y="-164.3" font-family="Ubuntu" font-size="14.00" fill="#8888ff">hil 3</text>
</a>
</g>
</g>
<!-- jenkins_37_0&#45;&gt;jenkins_35_0 -->
<g id="edge41" class="edge"><title>jenkins_37_0&#45;&gt;jenkins_35_0</title>
<path fill="none" stroke="#bbbbbb" d="M55,-188.169C55,-185.35 55,-182.317 55,-179.514"/>
</g>
<!-- jenkins_32 -->
<g id="node49" class="node"><title>jenkins_32</title>
<g id="a_node49"><a xlink:href="http://jenkins/job/ebl_verify_autotest/32/" xlink:title="32\l">
<polygon fill="#8888ff" stroke="none" points="278.25,-147.5 245.75,-147.5 245.75,-124.5 278.25,-124.5 278.25,-147.5"/>
<text text-anchor="start" x="253.5" y="-132.3" font-family="Ubuntu" font-size="14.00" fill="#ffffff">32</text>
</a>
</g>
</g>
<!-- jenkins_35&#45;&gt;jenkins_32 -->
<g id="edge21" class="edge"><title>jenkins_35&#45;&gt;jenkins_32</title>
<path fill="none" stroke="#bbbbbb" d="M262,-156.169C262,-153.35 262,-150.317 262,-147.514"/>
</g>
<!-- jenkins_32_0 -->
<g id="node50" class="node"><title>jenkins_32_0</title>
<g id="a_node50"><a xlink:href="http://jenkins/job/ebl_verify_autotest/32/" xlink:title="hil 2\l">
<path fill="#dddddd" stroke="none" d="M68.5833,-147.5C68.5833,-147.5 41.4167,-147.5 41.4167,-147.5 37.5833,-147.5 33.75,-143.667 33.75,-139.833 33.75,-139.833 33.75,-132.167 33.75,-132.167 33.75,-128.333 37.5833,-124.5 41.4167,-124.5 41.4167,-124.5 68.5833,-124.5 68.5833,-124.5 72.4167,-124.5 76.25,-128.333 76.25,-132.167 76.25,-132.167 76.25,-139.833 76.25,-139.833 76.25,-143.667 72.4167,-147.5 68.5833,-147.5"/>
<text text-anchor="start" x="41.5" y="-132.3" font-family="Ubuntu" font-size="14.00" fill="#8888ff">hil 2</text>
</a>
</g>
</g>
<!-- jenkins_35_0&#45;&gt;jenkins_32_0 -->
<g id="edge42" class="edge"><title>jenkins_35_0&#45;&gt;jenkins_32_0</title>
<path fill="none" stroke="#bbbbbb" d="M55,-156.169C55,-153.35 55,-150.317 55,-147.514"/>
</g>
<!-- jenkins_31 -->
<g id="node51" class="node"><title>jenkins_31</title>
<g id="a_node51"><a xlink:href="http://jenkins/job/ebl_verify_autotest/31/" xlink:title="31\l">
<polygon fill="#8888ff" stroke="none" points="278.25,-85.5 245.75,-85.5 245.75,-62.5 278.25,-62.5 278.25,-85.5"/>
<text text-anchor="start" x="253.5" y="-70.3" font-family="Ubuntu" font-size="14.00" fill="#ffffff">31</text>
</a>
</g>
</g>
<!-- jenkins_32&#45;&gt;jenkins_31 -->
<g id="edge22" class="edge"><title>jenkins_32&#45;&gt;jenkins_31</title>
<path fill="none" stroke="#bbbbbb" d="M262,-124.273C262,-113.352 262,-96.5214 262,-85.6339"/>
</g>
<!-- jenkins_31_0 -->
<g id="node52" class="node"><title>jenkins_31_0</title>
<g id="a_node52"><a xlink:href="http://jenkins/job/ebl_verify_autotest/31/" xlink:title="hil 3\l">
<path fill="#dddddd" stroke="none" d="M68.5833,-85.5C68.5833,-85.5 41.4167,-85.5 41.4167,-85.5 37.5833,-85.5 33.75,-81.6667 33.75,-77.8333 33.75,-77.8333 33.75,-70.1667 33.75,-70.1667 33.75,-66.3333 37.5833,-62.5 41.4167,-62.5 41.4167,-62.5 68.5833,-62.5 68.5833,-62.5 72.4167,-62.5 76.25,-66.3333 76.25,-70.1667 76.25,-70.1667 76.25,-77.8333 76.25,-77.8333 76.25,-81.6667 72.4167,-85.5 68.5833,-85.5"/>
<text text-anchor="start" x="41.5" y="-70.3" font-family="Ubuntu" font-size="14.00" fill="#8888ff">hil 3</text>
</a>
</g>
</g>
<!-- jenkins_32_0&#45;&gt;jenkins_31_0 -->
<g id="edge43" class="edge"><title>jenkins_32_0&#45;&gt;jenkins_31_0</title>
<path fill="none" stroke="#bbbbbb" d="M55,-124.273C55,-113.352 55,-96.5214 55,-85.6339"/>
</g>
<!-- jenkins_1 -->
<g id="node53" class="node"><title>jenkins_1</title>
<g id="a_node53"><a xlink:href="http://jenkins/job/ebl_verify_autotest/1/" xlink:title="1\l">
<polygon fill="#8888ff" stroke="none" points="274.25,-23.5 249.75,-23.5 249.75,-0.5 274.25,-0.5 274.25,-23.5"/>
<text text-anchor="start" x="257.5" y="-8.3" font-family="Ubuntu" font-size="14.00" fill="#ffffff">1</text>
</a>
</g>
</g>
<!-- jenkins_31&#45;&gt;jenkins_1 -->
<g id="edge23" class="edge"><title>jenkins_31&#45;&gt;jenkins_1</title>
<path fill="none" stroke="#bbbbbb" d="M262,-62.2732C262,-51.352 262,-34.5214 262,-23.6339"/>
</g>
</g>
</svg>
